# xmcd
#
# Track frame offsets: 
#        183
#        38023
#        71525
#        100090
#        126268
#        141418
#        157753
#        173843
#        198033
#        222400
#        249915
#        274828
#        311355
#
# Disc length: 4436 seconds
#
# Revision: 0
# Processed by: cddbd v1.5.2PL0 Copyright (c) Steve Scherf et al.
# Submitted via: ExactAudioCopy v0.99pb5
#
DISCID=af11520d
DTITLE=Various Artist - Jackmaster 1
DYEAR=1987
DGENRE=House
TTITLE0=Nitestar - Body Groove
TTITLE1=The Children - Freedom
TTITLE2=Patrick Adams - Jack In The Bush
TTITLE3=Masters At Work - Alright, Alright
TTITLE4=Hokus Pokus - House It Up
TTITLE5=Out Of Control - Whatcha Gonna Do
TTITLE6=MK II - Don't Stop The Music
TTITLE7=Full House - I Remember
TTITLE8=The Endless Poker's - The Poke
TTITLE9=Joe Smooth and Anthony Thomas - Goin' Down
TTITLE10=Chip E. And House People - Godfather Of House
TTITLE11="Fast" Eddie Smith and Tyree Cooper - The Whop
TTITLE12=Bad Boy Bill - Jack It All Night Long
EXTD=
EXTT0=
EXTT1=
EXTT2=
EXTT3=
EXTT4=
EXTT5=
EXTT6=
EXTT7=
EXTT8=
EXTT9=
EXTT10=
EXTT11=
EXTT12=
PLAYORDER=
